<?xml version="1.0" encoding="UTF-8" standalone="no"?>
<!-- Created with Inkscape (http://www.inkscape.org/) -->

<svg
   version="1.1"
   id="svg2"
   width="688"
   height="514"
   viewBox="0 0 688 514"
   xmlns="http://www.w3.org/2000/svg"
   xmlns:svg="http://www.w3.org/2000/svg">
  <defs
     id="defs6" />
  <g
     id="g8">
    <path
       style="fill:#000000"
       d="M 562.5,447.06097 C 544.73735,443.49106 528.33784,417.42895 517.47048,375.5 511.09795,350.91325 506.62686,323.02207 504.91606,297.18411 l -0.68305,-10.3159 -2.83931,3.44459 c -2.72609,3.30721 -16.81814,14.26126 -33.11977,25.74469 -7.21815,5.08471 -7.72764,5.68318 -7.75,9.10342 -0.0317,4.84292 3.22253,15.11372 6.14122,19.38276 7.13123,10.43058 17.67908,4.54943 27.684,-15.43573 2.83297,-5.65895 5.15085,-10.92326 5.15085,-11.69847 0,-0.77521 0.38063,-1.40947 0.84585,-1.40947 0.46521,0 1.88535,4.95365 3.15585,11.00812 2.59818,12.38136 2.57611,12.55496 -3.52626,27.7359 -4.74741,11.81017 -11.29745,21.20111 -18.01388,25.82689 -4.70165,3.23815 -6.37894,3.83303 -10.93169,3.87707 -3.93726,0.0381 -6.12154,-0.50266 -8.15391,-2.01859 C 449.66059,372.57214 442.77307,338.7551 445.47653,297 c 2.37562,-36.6915 10.50899,-67.23001 22.29475,-83.71055 6.06473,-8.48058 14.96169,-11.80381 21.00326,-7.84522 6.00201,3.93267 12.4966,18.34239 15.1212,33.54981 l 1.29543,7.50596 0.72781,-6.5 c 4.07461,-36.38963 11.38489,-59.22156 22.99975,-71.83429 10.41175,-11.30625 22.1449,-11.44418 33.19882,-0.39027 15.52289,15.52289 28.78887,48.00003 35.36298,86.57393 3.28513,19.27569 2.1376,32.87624 -3.38436,40.11163 -3.41173,4.47038 -23.8776,25.13571 -41.54117,41.94605 l -15.44501,14.69894 1.76015,6.69701 c 5.32192,20.24881 18.76685,35.70709 29.33249,33.72496 5.40928,-1.01478 14.89627,-11.00946 19.48523,-20.52796 4.25079,-8.81707 8.03191,-20.04145 10.37281,-30.79207 0.9231,-4.23936 1.98979,-8.05063 2.3704,-8.46948 1.08068,-1.18925 14.06893,31.70716 14.06893,35.63353 0,10.14235 -8.01719,40.75711 -13.5671,51.80788 -9.84889,19.61072 -24.97706,30.58544 -38.4329,27.88111 z M 538.69808,297.81116 c 7.92478,-6.52508 17.37096,-16.02669 26.06079,-26.21376 7.79044,-9.13271 8.02671,-10.30572 4.66476,-23.15906 -3.96003,-15.13989 -11.80123,-28.25521 -19.17147,-32.0665 -8.56757,-4.43046 -16.81895,5.56774 -21.22153,25.71413 -3.02087,13.82365 -3.02242,55.07321 -0.002,59.95995 1.16309,1.88192 3.46557,0.87356 9.6697,-4.23476 z m -62.55513,-15.6882 c 4.32138,-3.27009 9.38419,-7.53614 11.2507,-9.48011 3.34522,-3.48404 3.38409,-3.62768 2.72447,-10.06597 -1.94505,-18.98478 -9.31188,-28.44451 -16.93358,-21.74437 -2.63739,2.31849 -8.22841,14.63181 -10.06543,22.16749 -1.90633,7.81996 -3.82529,25.29913 -3.01057,27.42225 0.50764,1.3229 1.07677,1.26878 4.3804,-0.41661 2.08833,-1.06538 7.33263,-4.61259 11.65401,-7.88268 z M 633.8997,420.23469 c -2.31001,-1.54244 -3.3997,-5.34227 -3.3997,-11.85506 0,-9.00071 2.30778,-17.95864 7.46182,-28.96398 10.17504,-21.72663 22.53818,-25.0866 22.53818,-6.12527 0,21.77063 -17.65048,52.92026 -26.6003,46.94431 z M 23.385072,409.62038 C 13.940988,406.24544 10.107913,400.89603 10.042781,391 c -0.07324,-11.12786 0.855736,-12.19611 25.95722,-29.84877 12.1,-8.50935 31.225,-21.78589 42.5,-29.50341 54.132619,-37.05277 110.444419,-77.91897 122.303879,-88.75749 5.45264,-4.98325 7.99933,-10.73769 6.56035,-14.82361 -0.52014,-1.47689 -4.3654,-5.11432 -9.05622,-8.56672 -15.90317,-11.70461 -53.92768,-38.32507 -88.56041,-62 -20.211669,-13.81669 -35.562129,-24.97465 -36.177929,-26.29705 -5.11464,-10.9834 7.31052,-28.34377 27.599709,-38.56216 12.2498,-6.16946 8.16322,-7.46052 53.50408,16.90332 59.64187,32.04846 135.40716,74.4632 140.03704,78.39519 5.19874,4.41511 6.79436,8.3701 6.76922,16.77858 -0.0292,9.78049 -5.91678,32.93108 -10.15207,39.91927 -4.38972,7.24301 -8.87851,10.62405 -51.80693,39.02195 C 219.43433,296.9466 189.05,317.04838 172,328.32971 34.76638,419.13192 48.269791,411.04498 34.032073,410.95611 c -3.86764,-0.0241 -8.65879,-0.62522 -10.647001,-1.33573 z M 342.09332,390.85194 c -0.3079,-2.39357 -1.46703,-23.70194 -2.57585,-47.35194 -1.7377,-37.06333 -3.57935,-62.58971 -7.8621,-108.97373 -0.50649,-5.48555 -0.73671,-10.45372 -0.51159,-11.04037 0.22512,-0.58665 7.03486,-1.8791 15.13276,-2.87211 18.60115,-2.28097 29.49684,-4.11025 40.08164,-6.72932 5.62303,-1.39134 8.68844,-1.73785 9.3674,-1.05889 0.55507,0.55507 1.38199,4.53389 1.83759,8.84182 0.4556,4.30793 1.13577,9.94697 1.51148,12.5312 0.83048,5.71229 1.69244,5.39692 -18.57465,6.79588 -18.85072,1.30119 -27.18395,2.67026 -28.73817,4.72139 -0.78066,1.03025 -1.0587,3.50932 -0.75246,6.70909 0.26715,2.79127 0.95618,12.23683 1.53119,20.99013 0.57501,8.75329 1.27767,16.29079 1.56147,16.75 0.88413,1.43055 5.90818,0.93878 22.17477,-2.17055 23.13809,-4.4228 21.13326,-4.26379 21.64874,-1.71711 0.24744,1.22242 0.71253,7.6813 1.03355,14.35308 l 0.58367,12.13051 -7.77138,0.66724 c -19.97036,1.71463 -32.79294,3.74094 -34.55902,5.46125 -1.71645,1.67198 -1.68659,2.97173 0.75,32.64388 1.3957,16.99642 2.53764,33.22706 2.53764,36.0681 v 5.16552 l -6.25,0.55021 c -3.4375,0.30261 -7.45305,0.85091 -8.92344,1.21844 -2.538,0.63437 -2.7018,0.44774 -3.23324,-3.68372 z m 72.02541,-15.0934 c -0.29826,-3.4422 -1.26631,-17.90974 -2.15121,-32.15009 -1.53721,-24.73749 -3.30868,-40.42224 -5.33828,-47.26555 -0.86349,-2.91147 -0.45759,-3.82114 5.21721,-11.69219 3.38445,-4.6943 6.49105,-8.5611 6.90355,-8.5929 0.4125,-0.0318 0.78163,1.17969 0.82029,2.69219 0.0387,1.5125 0.41898,3.64279 0.84516,4.73398 0.62816,1.60835 1.64757,0.1657 5.3841,-7.61951 2.92477,-6.09384 6.54454,-11.72167 9.90484,-15.3995 L 441,254.66895 l 0.63169,2.91552 c 0.34742,1.60354 0.68492,7.07849 0.75,12.16654 l 0.11831,9.25102 -6.49848,6.14621 c -3.87459,3.66456 -7.55199,8.2995 -9.10765,11.47916 -2.35431,4.81203 -2.60475,6.43377 -2.56394,16.60277 0.0249,6.19841 0.75893,21.29208 1.63123,33.5415 1.0463,14.69269 1.25639,22.88758 0.61738,24.08158 -0.53275,0.99545 -3.43213,3.91454 -6.44308,6.48687 l -5.47444,4.67696 z M 644.06079,336.86382 C 641.03153,310.29515 631.39875,192.87542 631.39723,182.5 c -0.002,-15.12239 1.946,-24.30603 7.68958,-36.24742 C 643.49521,137.08713 651.80645,128 655.78092,128 c 4.48415,0 5.7227,3.95735 5.6962,18.20034 -0.0294,15.80115 -14.42064,193.64318 -15.77988,195.00242 -0.69985,0.69985 -1.21884,-0.67624 -1.63645,-4.33894 z M 422.9247,197.98114 C 415.11884,194.11723 411.5,186.34252 411.5,173.43633 c 0,-10.19684 2.0949,-19.60844 6.47449,-29.0875 20.24178,-43.81068 67.78867,-53.87476 67.78867,-14.34858 0,12.46373 -2.40349,14.84311 -25.26316,25.00973 -6.325,2.81298 -13.3,5.92325 -15.5,6.91171 -2.2,0.98846 -6.85284,3.06501 -10.33964,4.61455 -6.13779,2.72764 -6.32014,2.9152 -5.72698,5.89055 0.33697,1.69027 1.92138,4.38362 3.5209,5.98524 2.33943,2.34248 4.00696,3.00314 8.52592,3.37789 4.95575,0.41096 6.48492,0.0372 12.9778,-3.17171 4.6944,-2.3201 10.12215,-6.217 14.98616,-10.75946 4.19433,-3.91703 7.81429,-6.93364 8.04436,-6.70356 0.23007,0.23007 1.31057,2.41123 2.40111,4.84703 l 1.98279,4.42871 -3.31374,4.53453 c -7.42796,10.16442 -23.94476,21.29084 -35.55868,23.95383 -7.32494,1.67956 -15.03333,1.31013 -19.5753,-0.93815 z m 25.86273,-50.90252 C 466.62862,138.37699 467.5,137.7407 467.5,133.4147 c 0,-4.97118 -5.32582,-10.42436 -10.15,-10.39274 -5.06726,0.0332 -11.22373,3.28932 -16.36561,8.65561 -5.0647,5.28574 -10.48439,15.54182 -10.48439,19.8404 0,2.50974 0.24714,2.6826 3.03743,2.12454 1.67058,-0.33411 8.53308,-3.28786 15.25,-6.56389 z M 333.5,196.14459 c 0,-0.47047 3.20838,-10.03297 7.12973,-21.25 9.95722,-28.4826 12.95869,-37.90801 20.98373,-65.89459 3.86391,-13.475 7.63066,-25.43805 8.37057,-26.58456 1.35347,-2.09726 8.14344,-3.51303 36.01597,-7.50962 9.20769,-1.32028 14.75129,-0.31407 19.15933,3.47757 2.23435,1.9219 2.76509,3.33609 3.12633,8.33014 0.80682,11.15418 -4.47559,23.13255 -14.93684,33.87073 -4.55325,4.67378 -4.81532,5.19857 -3.24608,6.5 9.28657,7.70171 2.63327,32.69653 -13.27799,49.88216 -8.86087,9.57056 -14.88204,12.35784 -31.32475,14.50067 -6.875,0.89595 -16.3807,2.50738 -21.12379,3.58096 -9.6892,2.1931 -10.87621,2.31278 -10.87621,1.09654 z m 41.24956,-21.60928 c 11.03807,-2.89827 17.13198,-8.77206 21.60312,-20.82282 5.24841,-14.14566 0.86471,-18.13384 -16.58451,-15.08813 -15.00434,2.61896 -14.07124,1.67237 -19.6944,19.97924 -2.68553,8.74302 -5.11419,16.53135 -5.39704,17.3074 -0.42611,1.16913 0.75747,1.30155 6.9045,0.77249 4.08032,-0.35119 10.00607,-1.31787 13.16833,-2.14818 z m 18.38497,-53.49813 c 7.73498,-2.71862 12.29334,-6.51835 15.61547,-13.01664 3.15294,-6.16736 3.75038,-13.94541 1.23172,-16.03571 -2.77859,-2.30603 -9.6251,-2.86616 -17.69366,-1.44757 -4.24809,0.74689 -8.59439,1.82391 -9.65845,2.39337 -1.3416,0.71801 -3.34396,5.37699 -6.53213,15.1986 -2.52861,7.78977 -4.59748,14.61411 -4.59748,15.16521 0,1.60757 15.12971,0.029 21.63453,-2.25726 z"
       id="path472" />
  </g>
</svg>
